<?xml version="1.0" standalone="no"?>
<!DOCTYPE svg PUBLIC "-//W3C//DTD SVG 20010904//EN"
 "http://www.w3.org/TR/2001/REC-SVG-20010904/DTD/svg10.dtd">
<svg version="1.0" xmlns="http://www.w3.org/2000/svg"
 width="300.000000pt" height="300.000000pt" viewBox="0 0 300.000000 300.000000"
 preserveAspectRatio="xMidYMid meet">
<metadata>
Created by potrace 1.11, written by Peter Selinger 2001-2013
</metadata>
<g transform="translate(0.000000,300.000000) scale(0.100000,-0.100000)"
fill="#000000" stroke="none">
<path d="M0 1500 l0 -1500 1500 0 1500 0 0 1500 0 1500 -1500 0 -1500 0 0
-1500z m1088 315 c62 -19 115 -63 144 -118 21 -42 42 -166 32 -192 -5 -13 -37
-15 -205 -15 l-199 0 0 -22 c0 -41 38 -88 87 -110 57 -25 136 -21 207 11 l47
20 15 -34 c22 -53 18 -64 -28 -85 -196 -86 -413 -15 -462 151 -36 120 -13 229
67 315 80 86 180 113 295 79z m629 2 c3 -4 2 -26 -3 -49 l-9 -43 -65 -6 c-36
-3 -73 -9 -83 -13 -36 -17 -42 -47 -47 -256 l-5 -205 -65 0 -65 0 -3 175 c-2
96 0 198 3 227 15 121 114 187 268 179 37 -2 70 -6 74 -9z m416 -12 c49 -21
114 -80 137 -126 26 -50 39 -138 29 -200 -24 -152 -133 -243 -291 -243 -65 0
-86 5 -135 30 -104 53 -161 163 -150 292 13 167 142 280 307 268 36 -3 82 -12
103 -21z m-1800 -58 c20 -39 46 -83 57 -97 l20 -25 29 33 c15 18 45 62 66 97
l38 65 58 0 c46 0 59 -3 59 -15 0 -35 -74 -156 -138 -227 l-34 -38 39 -43 c63
-69 153 -213 153 -247 0 -6 -30 -10 -73 -10 l-74 0 -37 73 c-20 39 -51 88 -67
107 l-30 35 -38 -43 c-21 -24 -52 -72 -71 -108 l-33 -64 -63 0 c-40 0 -64 4
-64 11 0 26 85 170 131 222 l50 56 -55 79 c-54 77 -106 174 -106 200 0 8 21
12 73 12 l72 0 38 -73z m2200 0 c20 -39 46 -83 57 -97 l20 -25 31 35 c17 19
46 63 66 98 l35 62 59 0 c46 0 59 -3 59 -15 0 -35 -74 -156 -138 -227 l-34
-38 39 -43 c63 -69 153 -213 153 -247 0 -6 -30 -10 -73 -10 l-74 0 -37 73
c-20 39 -51 88 -67 107 l-30 35 -34 -38 c-18 -21 -50 -69 -70 -108 l-36 -69
-65 0 c-40 0 -64 4 -64 11 0 26 85 170 131 222 l50 56 -55 79 c-54 77 -106
174 -106 200 0 8 21 12 73 12 l72 0 38 -73z"/>
<path d="M973 1719 c-47 -9 -78 -33 -97 -72 -31 -67 -31 -67 119 -67 l135 0 0
25 c0 30 -22 76 -44 94 -22 19 -76 28 -113 20z"/>
<path d="M1979 1721 c-77 -24 -109 -79 -109 -189 0 -85 15 -128 59 -165 43
-36 112 -38 162 -4 92 62 91 272 -1 338 -31 22 -77 30 -111 20z"/>
</g>
</svg>
